<svg width="24" height="25" viewBox="0 0 24 25" fill="none" xmlns="http://www.w3.org/2000/svg">
<path fill-rule="evenodd" clip-rule="evenodd" d="M7.21653 16.8621C7.05653 16.8621 6.89553 16.8111 6.75953 16.7071C6.43153 16.4541 6.36953 15.9831 6.62253 15.6551L9.61553 11.7651C9.73753 11.6061 9.91853 11.5031 10.1165 11.4781C10.3185 11.4521 10.5165 11.5081 10.6735 11.6331L13.4935 13.8481L15.9605 10.6651C16.2145 10.3361 16.6845 10.2751 17.0125 10.5311C17.3405 10.7851 17.4005 11.2561 17.1465 11.5831L14.2165 15.3631C14.0945 15.5211 13.9145 15.6241 13.7165 15.6481C13.5165 15.6751 13.3185 15.6171 13.1605 15.4941L10.3425 13.2801L7.81153 16.5691C7.66353 16.7611 7.44153 16.8621 7.21653 16.8621" fill="#340AFC"/>
<mask id="mask0_1306_4343" style="mask-type:alpha" maskUnits="userSpaceOnUse" x="17" y="2" width="6" height="7">
<path fill-rule="evenodd" clip-rule="evenodd" d="M17.2954 2.8593H22.6394V8.2042H17.2954V2.8593Z" fill="white"/>
</mask>
<g mask="url(#mask0_1306_4343)">
<path fill-rule="evenodd" clip-rule="evenodd" d="M19.9674 4.35919C19.3214 4.35919 18.7954 4.88419 18.7954 5.53119C18.7954 6.17719 19.3214 6.70419 19.9674 6.70419C20.6134 6.70419 21.1394 6.17719 21.1394 5.53119C21.1394 4.88419 20.6134 4.35919 19.9674 4.35919M19.9674 8.20419C18.4944 8.20419 17.2954 7.00519 17.2954 5.53119C17.2954 4.05719 18.4944 2.85919 19.9674 2.85919C21.4414 2.85919 22.6394 4.05719 22.6394 5.53119C22.6394 7.00519 21.4414 8.20419 19.9674 8.20419" fill="#340AFC"/>
</g>
<mask id="mask1_1306_4343" style="mask-type:alpha" maskUnits="userSpaceOnUse" x="2" y="3" width="20" height="21">
<path fill-rule="evenodd" clip-rule="evenodd" d="M2 3.70129H21.8619V23.5623H2V3.70129Z" fill="white"/>
</mask>
<g mask="url(#mask1_1306_4343)">
<path fill-rule="evenodd" clip-rule="evenodd" d="M16.233 23.5623H7.629C4.262 23.5623 2 21.1973 2 17.6773V9.59529C2 6.07029 4.262 3.70129 7.629 3.70129H14.897C15.311 3.70129 15.647 4.03729 15.647 4.45129C15.647 4.86529 15.311 5.20129 14.897 5.20129H7.629C5.121 5.20129 3.5 6.92529 3.5 9.59529V17.6773C3.5 20.3823 5.082 22.0623 7.629 22.0623H16.233C18.741 22.0623 20.362 20.3413 20.362 17.6773V10.6383C20.362 10.2243 20.698 9.88829 21.112 9.88829C21.526 9.88829 21.862 10.2243 21.862 10.6383V17.6773C21.862 21.1973 19.6 23.5623 16.233 23.5623" fill="#340AFC"/>
</g>
</svg>
