<svg width="512" height="512" viewBox="0 0 512 512" fill="none" xmlns="http://www.w3.org/2000/svg">
<rect width="512" height="512" rx="77.184" fill="#FAF1E6"/>
<path d="M256.78 136.27C268.739 136.27 280.171 138.381 291.075 142.602C301.98 146.705 311.067 152.744 318.336 160.717L361.25 126.597L312.18 231.77L307.959 180.591C304.09 175.901 299.986 172.207 295.648 169.511C291.31 166.814 287.089 164.821 282.985 163.531C278.999 162.124 275.364 161.244 272.081 160.893C268.915 160.541 266.453 160.365 264.694 160.365C255.197 160.365 246.345 162.769 238.137 167.576C230.047 172.383 223.012 179.301 217.032 188.329C211.052 197.24 206.304 208.027 202.786 220.69C199.386 233.353 197.686 247.482 197.686 263.076C197.686 278.67 199.386 292.916 202.786 305.814C206.304 318.711 210.994 329.791 216.856 339.054C222.836 348.317 229.812 355.528 237.785 360.687C245.758 365.728 254.259 368.249 263.287 368.249C272.433 368.249 280.288 366.022 286.854 361.566C293.42 356.993 298.814 351.248 303.035 344.33C307.256 337.413 310.304 329.85 312.18 321.642C314.174 313.435 315.17 305.579 315.17 298.075C315.17 296.434 315.17 294.909 315.17 293.502C315.17 291.978 315.053 290.395 314.819 288.754C322.44 293.796 328.009 299.541 331.527 305.99C335.161 312.321 336.979 318.887 336.979 325.688C336.979 332.019 335.396 338.761 332.23 345.913C329.182 352.948 324.609 359.514 318.512 365.611C312.415 371.591 304.911 376.574 296 380.561C287.089 384.43 276.771 386.364 265.046 386.364C255.549 386.364 246.11 385.368 236.73 383.375C227.35 381.381 218.38 378.333 209.821 374.229C201.262 370.008 193.289 364.673 185.902 358.224C178.515 351.776 172.125 344.096 166.732 335.185C161.338 326.274 157.059 316.014 153.893 304.407C150.844 292.799 149.32 279.843 149.32 265.538C149.32 251.586 150.727 238.747 153.541 227.022C156.472 215.179 160.459 204.51 165.501 195.012C170.66 185.398 176.639 176.956 183.44 169.686C190.358 162.3 197.744 156.144 205.6 151.22C213.573 146.295 221.898 142.602 230.574 140.139C239.368 137.56 248.103 136.27 256.78 136.27Z" fill="#FFB319"/>
<path d="M291.075 142.602L289.218 147.4L289.24 147.409L289.263 147.418L291.075 142.602ZM318.336 160.717L314.534 164.184L317.774 167.738L321.538 164.744L318.336 160.717ZM361.25 126.597L365.913 128.773L358.047 122.569L361.25 126.597ZM312.18 231.77L307.052 232.193L308.646 251.516L316.843 233.946L312.18 231.77ZM307.959 180.591L313.088 180.168L312.955 178.56L311.929 177.316L307.959 180.591ZM282.985 163.531L281.273 168.383L281.357 168.413L281.442 168.44L282.985 163.531ZM272.081 160.893L271.513 166.007L271.523 166.008L271.533 166.009L272.081 160.893ZM238.137 167.576L235.536 163.136L235.522 163.144L235.508 163.152L238.137 167.576ZM217.032 188.329L221.305 191.196L221.313 191.184L221.322 191.171L217.032 188.329ZM202.786 220.69L197.828 219.313L197.822 219.334L197.817 219.356L202.786 220.69ZM202.786 305.814L197.811 307.125L197.816 307.147L197.822 307.168L202.786 305.814ZM216.856 339.054L212.508 341.806L212.521 341.825L212.533 341.845L216.856 339.054ZM237.785 360.687L234.99 365.007L235.012 365.021L235.035 365.036L237.785 360.687ZM286.854 361.566L289.744 365.824L289.769 365.806L289.795 365.789L286.854 361.566ZM312.18 321.642L307.18 320.428L307.172 320.462L307.164 320.496L312.18 321.642ZM314.819 288.754L317.658 284.462L308.105 278.143L309.725 289.482L314.819 288.754ZM331.527 305.99L327.009 308.454L327.036 308.503L327.064 308.551L331.527 305.99ZM332.23 345.913L327.525 343.831L327.517 343.849L327.509 343.867L332.23 345.913ZM318.512 365.611L322.115 369.285L322.133 369.267L322.15 369.25L318.512 365.611ZM296 380.561L298.049 385.28L298.075 385.269L298.101 385.258L296 380.561ZM236.73 383.375L235.66 388.408L236.73 383.375ZM209.821 374.229L207.545 378.844L207.571 378.857L207.597 378.869L209.821 374.229ZM153.893 304.407L148.916 305.714L148.922 305.737L148.929 305.761L153.893 304.407ZM153.541 227.022L148.546 225.785L148.542 225.803L148.538 225.821L153.541 227.022ZM165.501 195.012L160.967 192.579L160.961 192.59L160.956 192.6L165.501 195.012ZM183.44 169.686L179.684 166.169L179.682 166.171L183.44 169.686ZM205.6 151.22L202.896 146.842L202.882 146.851L202.867 146.86L205.6 151.22ZM230.574 140.139L231.979 145.09L232.001 145.083L232.023 145.077L230.574 140.139ZM256.78 141.416C268.119 141.416 278.92 143.414 289.218 147.4L292.933 137.803C281.423 133.347 269.36 131.125 256.78 131.125V141.416ZM289.263 147.418C299.469 151.258 307.855 156.858 314.534 164.184L322.138 157.25C314.278 148.629 304.491 142.152 292.888 137.786L289.263 147.418ZM321.538 164.744L364.452 130.625L358.047 122.569L315.134 156.689L321.538 164.744ZM356.586 124.421L307.517 229.595L316.843 233.946L365.913 128.773L356.586 124.421ZM317.309 231.347L313.088 180.168L302.831 181.014L307.052 232.193L317.309 231.347ZM311.929 177.316C307.77 172.275 303.258 168.182 298.365 165.14L292.932 173.881C296.715 176.233 300.411 179.526 303.99 183.865L311.929 177.316ZM298.365 165.14C293.726 162.257 289.112 160.063 284.528 158.622L281.442 168.44C285.065 169.578 288.894 171.371 292.932 173.881L298.365 165.14ZM284.698 158.679C280.434 157.174 276.402 156.181 272.629 155.776L271.533 166.009C274.326 166.308 277.563 167.074 281.273 168.383L284.698 158.679ZM272.649 155.779C269.42 155.42 266.737 155.219 264.694 155.219V165.511C266.169 165.511 268.411 165.662 271.513 166.007L272.649 155.779ZM264.694 155.219C254.281 155.219 244.531 157.867 235.536 163.136L240.738 172.016C248.158 167.67 256.112 165.511 264.694 165.511V155.219ZM235.508 163.152C226.659 168.411 219.085 175.911 212.742 185.488L221.322 191.171C226.938 182.691 233.435 176.356 240.766 172L235.508 163.152ZM212.759 185.462C206.413 194.919 201.461 206.235 197.828 219.313L207.744 222.067C211.146 209.82 215.691 199.561 221.305 191.196L212.759 185.462ZM197.817 219.356C194.28 232.527 192.54 247.114 192.54 263.076H202.831C202.831 247.85 204.492 234.179 207.756 222.025L197.817 219.356ZM192.54 263.076C192.54 279.04 194.28 293.735 197.811 307.125L207.762 304.502C204.491 292.098 202.831 278.3 202.831 263.076H192.54ZM197.822 307.168C201.446 320.455 206.319 332.028 212.508 341.806L221.204 336.302C215.668 327.555 211.162 316.968 207.75 304.46L197.822 307.168ZM212.533 341.845C218.845 351.622 226.314 359.393 234.99 365.007L240.581 356.367C233.31 351.662 226.827 345.012 221.179 336.263L212.533 341.845ZM235.035 365.036C243.792 370.573 253.24 373.395 263.287 373.395V363.104C255.277 363.104 247.724 360.884 240.535 356.338L235.035 365.036ZM263.287 373.395C273.301 373.395 282.2 370.943 289.744 365.824L283.965 357.308C278.376 361.101 271.564 363.104 263.287 363.104V373.395ZM289.795 365.789C296.954 360.803 302.84 354.529 307.427 347.01L298.642 341.65C294.788 347.967 289.886 353.184 283.914 357.344L289.795 365.789ZM307.427 347.01C311.949 339.6 315.202 331.517 317.197 322.789L307.164 320.496C305.407 328.183 302.563 335.225 298.642 341.65L307.427 347.01ZM317.181 322.857C319.259 314.301 320.316 306.036 320.316 298.075H310.025C310.025 305.123 309.089 312.569 307.18 320.428L317.181 322.857ZM320.316 298.075C320.316 298.072 320.316 298.069 320.316 298.066C320.316 298.062 320.316 298.059 320.316 298.056C320.316 298.053 320.316 298.05 320.316 298.046C320.316 298.043 320.316 298.04 320.316 298.037C320.316 298.034 320.316 298.03 320.316 298.027C320.316 298.024 320.316 298.021 320.316 298.018C320.316 298.014 320.316 298.011 320.316 298.008C320.316 298.005 320.316 298.002 320.316 297.998C320.316 297.995 320.316 297.992 320.316 297.989C320.316 297.986 320.316 297.982 320.316 297.979C320.316 297.976 320.316 297.973 320.316 297.97C320.316 297.966 320.316 297.963 320.316 297.96C320.316 297.957 320.316 297.954 320.316 297.95C320.316 297.947 320.316 297.944 320.316 297.941C320.316 297.938 320.316 297.934 320.316 297.931C320.316 297.928 320.316 297.925 320.316 297.922C320.316 297.918 320.316 297.915 320.316 297.912C320.316 297.909 320.316 297.906 320.316 297.903C320.316 297.899 320.316 297.896 320.316 297.893C320.316 297.89 320.316 297.887 320.316 297.883C320.316 297.88 320.316 297.877 320.316 297.874C320.316 297.871 320.316 297.867 320.316 297.864C320.316 297.861 320.316 297.858 320.316 297.855C320.316 297.852 320.316 297.848 320.316 297.845C320.316 297.842 320.316 297.839 320.316 297.836C320.316 297.832 320.316 297.829 320.316 297.826C320.316 297.823 320.316 297.82 320.316 297.816C320.316 297.813 320.316 297.81 320.316 297.807C320.316 297.804 320.316 297.801 320.316 297.797C320.316 297.794 320.316 297.791 320.316 297.788C320.316 297.785 320.316 297.782 320.316 297.778C320.316 297.775 320.316 297.772 320.316 297.769C320.316 297.766 320.316 297.762 320.316 297.759C320.316 297.756 320.316 297.753 320.316 297.75C320.316 297.747 320.316 297.743 320.316 297.74C320.316 297.737 320.316 297.734 320.316 297.731C320.316 297.728 320.316 297.724 320.316 297.721C320.316 297.718 320.316 297.715 320.316 297.712C320.316 297.708 320.316 297.705 320.316 297.702C320.316 297.699 320.316 297.696 320.316 297.693C320.316 297.689 320.316 297.686 320.316 297.683C320.316 297.68 320.316 297.677 320.316 297.674C320.316 297.67 320.316 297.667 320.316 297.664C320.316 297.661 320.316 297.658 320.316 297.655C320.316 297.651 320.316 297.648 320.316 297.645C320.316 297.642 320.316 297.639 320.316 297.636C320.316 297.632 320.316 297.629 320.316 297.626C320.316 297.623 320.316 297.62 320.316 297.617C320.316 297.613 320.316 297.61 320.316 297.607C320.316 297.604 320.316 297.601 320.316 297.598C320.316 297.594 320.316 297.591 320.316 297.588C320.316 297.585 320.316 297.582 320.316 297.579C320.316 297.576 320.316 297.572 320.316 297.569C320.316 297.566 320.316 297.563 320.316 297.56C320.316 297.557 320.316 297.553 320.316 297.55C320.316 297.547 320.316 297.544 320.316 297.541C320.316 297.538 320.316 297.534 320.316 297.531C320.316 297.528 320.316 297.525 320.316 297.522C320.316 297.519 320.316 297.516 320.316 297.512C320.316 297.509 320.316 297.506 320.316 297.503C320.316 297.5 320.316 297.497 320.316 297.493C320.316 297.49 320.316 297.487 320.316 297.484C320.316 297.481 320.316 297.478 320.316 297.475C320.316 297.471 320.316 297.468 320.316 297.465C320.316 297.462 320.316 297.459 320.316 297.456C320.316 297.453 320.316 297.449 320.316 297.446C320.316 297.443 320.316 297.44 320.316 297.437C320.316 297.434 320.316 297.431 320.316 297.427C320.316 297.424 320.316 297.421 320.316 297.418C320.316 297.415 320.316 297.412 320.316 297.409C320.316 297.405 320.316 297.402 320.316 297.399C320.316 297.396 320.316 297.393 320.316 297.39C320.316 297.387 320.316 297.383 320.316 297.38C320.316 297.377 320.316 297.374 320.316 297.371C320.316 297.368 320.316 297.365 320.316 297.361C320.316 297.358 320.316 297.355 320.316 297.352C320.316 297.349 320.316 297.346 320.316 297.343C320.316 297.339 320.316 297.336 320.316 297.333C320.316 297.33 320.316 297.327 320.316 297.324C320.316 297.321 320.316 297.317 320.316 297.314C320.316 297.311 320.316 297.308 320.316 297.305C320.316 297.302 320.316 297.299 320.316 297.296C320.316 297.292 320.316 297.289 320.316 297.286C320.316 297.283 320.316 297.28 320.316 297.277C320.316 297.274 320.316 297.27 320.316 297.267C320.316 297.264 320.316 297.261 320.316 297.258C320.316 297.255 320.316 297.252 320.316 297.249C320.316 297.245 320.316 297.242 320.316 297.239C320.316 297.236 320.316 297.233 320.316 297.23C320.316 297.227 320.316 297.224 320.316 297.22C320.316 297.217 320.316 297.214 320.316 297.211C320.316 297.208 320.316 297.205 320.316 297.202C320.316 297.199 320.316 297.195 320.316 297.192C320.316 297.189 320.316 297.186 320.316 297.183C320.316 297.18 320.316 297.177 320.316 297.174C320.316 297.17 320.316 297.167 320.316 297.164C320.316 297.161 320.316 297.158 320.316 297.155C320.316 297.152 320.316 297.149 320.316 297.146C320.316 297.142 320.316 297.139 320.316 297.136C320.316 297.133 320.316 297.13 320.316 297.127C320.316 297.124 320.316 297.121 320.316 297.117C320.316 297.114 320.316 297.111 320.316 297.108C320.316 297.105 320.316 297.102 320.316 297.099C320.316 297.096 320.316 297.093 320.316 297.089C320.316 297.086 320.316 297.083 320.316 297.08C320.316 297.077 320.316 297.074 320.316 297.071C320.316 297.068 320.316 297.065 320.316 297.061C320.316 297.058 320.316 297.055 320.316 297.052C320.316 297.049 320.316 297.046 320.316 297.043C320.316 297.04 320.316 297.037 320.316 297.033C320.316 297.03 320.316 297.027 320.316 297.024C320.316 297.021 320.316 297.018 320.316 297.015C320.316 297.012 320.316 297.009 320.316 297.005C320.316 297.002 320.316 296.999 320.316 296.996C320.316 296.993 320.316 296.99 320.316 296.987C320.316 296.984 320.316 296.981 320.316 296.978C320.316 296.974 320.316 296.971 320.316 296.968C320.316 296.965 320.316 296.962 320.316 296.959C320.316 296.956 320.316 296.953 320.316 296.95C320.316 296.947 320.316 296.943 320.316 296.94C320.316 296.937 320.316 296.934 320.316 296.931C320.316 296.928 320.316 296.925 320.316 296.922C320.316 296.919 320.316 296.916 320.316 296.912C320.316 296.909 320.316 296.906 320.316 296.903C320.316 296.9 320.316 296.897 320.316 296.894C320.316 296.891 320.316 296.888 320.316 296.885C320.316 296.882 320.316 296.878 320.316 296.875C320.316 296.872 320.316 296.869 320.316 296.866C320.316 296.863 320.316 296.86 320.316 296.857C320.316 296.854 320.316 296.851 320.316 296.848C320.316 296.844 320.316 296.841 320.316 296.838C320.316 296.835 320.316 296.832 320.316 296.829C320.316 296.826 320.316 296.823 320.316 296.82C320.316 296.817 320.316 296.814 320.316 296.81C320.316 296.807 320.316 296.804 320.316 296.801C320.316 296.798 320.316 296.795 320.316 296.792C320.316 296.789 320.316 296.786 320.316 296.783C320.316 296.78 320.316 296.777 320.316 296.773C320.316 296.77 320.316 296.767 320.316 296.764C320.316 296.761 320.316 296.758 320.316 296.755C320.316 296.752 320.316 296.749 320.316 296.746C320.316 296.743 320.316 296.74 320.316 296.736C320.316 296.733 320.316 296.73 320.316 296.727C320.316 296.724 320.316 296.721 320.316 296.718C320.316 296.715 320.316 296.712 320.316 296.709C320.316 296.706 320.316 296.703 320.316 296.7C320.316 296.696 320.316 296.693 320.316 296.69C320.316 296.687 320.316 296.684 320.316 296.681C320.316 296.678 320.316 296.675 320.316 296.672C320.316 296.669 320.316 296.666 320.316 296.663C320.316 296.66 320.316 296.657 320.316 296.653C320.316 296.65 320.316 296.647 320.316 296.644C320.316 296.641 320.316 296.638 320.316 296.635C320.316 296.632 320.316 296.629 320.316 296.626C320.316 296.623 320.316 296.62 320.316 296.617C320.316 296.614 320.316 296.61 320.316 296.607C320.316 296.604 320.316 296.601 320.316 296.598C320.316 296.595 320.316 296.592 320.316 296.589C320.316 296.586 320.316 296.583 320.316 296.58C320.316 296.577 320.316 296.574 320.316 296.571C320.316 296.568 320.316 296.565 320.316 296.561C320.316 296.558 320.316 296.555 320.316 296.552C320.316 296.549 320.316 296.546 320.316 296.543C320.316 296.54 320.316 296.537 320.316 296.534C320.316 296.531 320.316 296.528 320.316 296.525C320.316 296.522 320.316 296.519 320.316 296.516C320.316 296.512 320.316 296.509 320.316 296.506C320.316 296.503 320.316 296.5 320.316 296.497C320.316 296.494 320.316 296.491 320.316 296.488C320.316 296.485 320.316 296.482 320.316 296.479C320.316 296.476 320.316 296.473 320.316 296.47C320.316 296.467 320.316 296.464 320.316 296.461C320.316 296.458 320.316 296.454 320.316 296.451C320.316 296.448 320.316 296.445 320.316 296.442C320.316 296.439 320.316 296.436 320.316 296.433C320.316 296.43 320.316 296.427 320.316 296.424C320.316 296.421 320.316 296.418 320.316 296.415C320.316 296.412 320.316 296.409 320.316 296.406C320.316 296.403 320.316 296.4 320.316 296.397C320.316 296.393 320.316 296.39 320.316 296.387C320.316 296.384 320.316 296.381 320.316 296.378C320.316 296.375 320.316 296.372 320.316 296.369C320.316 296.366 320.316 296.363 320.316 296.36C320.316 296.357 320.316 296.354 320.316 296.351C320.316 296.348 320.316 296.345 320.316 296.342C320.316 296.339 320.316 296.336 320.316 296.333C320.316 296.33 320.316 296.327 320.316 296.324C320.316 296.32 320.316 296.317 320.316 296.314C320.316 296.311 320.316 296.308 320.316 296.305C320.316 296.302 320.316 296.299 320.316 296.296C320.316 296.293 320.316 296.29 320.316 296.287C320.316 296.284 320.316 296.281 320.316 296.278C320.316 296.275 320.316 296.272 320.316 296.269C320.316 296.266 320.316 296.263 320.316 296.26C320.316 296.257 320.316 296.254 320.316 296.251C320.316 296.248 320.316 296.245 320.316 296.242C320.316 296.239 320.316 296.236 320.316 296.232C320.316 296.229 320.316 296.226 320.316 296.223C320.316 296.22 320.316 296.217 320.316 296.214C320.316 296.211 320.316 296.208 320.316 296.205C320.316 296.202 320.316 296.199 320.316 296.196C320.316 296.193 320.316 296.19 320.316 296.187C320.316 296.184 320.316 296.181 320.316 296.178C320.316 296.175 320.316 296.172 320.316 296.169C320.316 296.166 320.316 296.163 320.316 296.16C320.316 296.157 320.316 296.154 320.316 296.151C320.316 296.148 320.316 296.145 320.316 296.142C320.316 296.139 320.316 296.136 320.316 296.133C320.316 296.13 320.316 296.127 320.316 296.124C320.316 296.121 320.316 296.118 320.316 296.115C320.316 296.112 320.316 296.109 320.316 296.105C320.316 296.102 320.316 296.099 320.316 296.096C320.316 296.093 320.316 296.09 320.316 296.087C320.316 296.084 320.316 296.081 320.316 296.078C320.316 296.075 320.316 296.072 320.316 296.069C320.316 296.066 320.316 296.063 320.316 296.06C320.316 296.057 320.316 296.054 320.316 296.051C320.316 296.048 320.316 296.045 320.316 296.042C320.316 296.039 320.316 296.036 320.316 296.033C320.316 296.03 320.316 296.027 320.316 296.024C320.316 296.021 320.316 296.018 320.316 296.015C320.316 296.012 320.316 296.009 320.316 296.006C320.316 296.003 320.316 296 320.316 295.997C320.316 295.994 320.316 295.991 320.316 295.988C320.316 295.985 320.316 295.982 320.316 295.979C320.316 295.976 320.316 295.973 320.316 295.97C320.316 295.967 320.316 295.964 320.316 295.961C320.316 295.958 320.316 295.955 320.316 295.952C320.316 295.949 320.316 295.946 320.316 295.943C320.316 295.94 320.316 295.937 320.316 295.934C320.316 295.931 320.316 295.928 320.316 295.925C320.316 295.922 320.316 295.919 320.316 295.916C320.316 295.913 320.316 295.91 320.316 295.907C320.316 295.904 320.316 295.901 320.316 295.898C320.316 295.895 320.316 295.892 320.316 295.889C320.316 295.886 320.316 295.883 320.316 295.88C320.316 295.877 320.316 295.874 320.316 295.871C320.316 295.868 320.316 295.865 320.316 295.862C320.316 295.859 320.316 295.856 320.316 295.853C320.316 295.85 320.316 295.847 320.316 295.844C320.316 295.841 320.316 295.838 320.316 295.835C320.316 295.832 320.316 295.829 320.316 295.826C320.316 295.823 320.316 295.82 320.316 295.817C320.316 295.814 320.316 295.811 320.316 295.808C320.316 295.805 320.316 295.802 320.316 295.799C320.316 295.796 320.316 295.793 320.316 295.79C320.316 295.787 320.316 295.784 320.316 295.781C320.316 295.778 320.316 295.775 320.316 295.772C320.316 295.769 320.316 295.766 320.316 295.763C320.316 295.76 320.316 295.758 320.316 295.755C320.316 295.752 320.316 295.749 320.316 295.746C320.316 295.743 320.316 295.74 320.316 295.737C320.316 295.734 320.316 295.731 320.316 295.728C320.316 295.725 320.316 295.722 320.316 295.719C320.316 295.716 320.316 295.713 320.316 295.71C320.316 295.707 320.316 295.704 320.316 295.701C320.316 295.698 320.316 295.695 320.316 295.692C320.316 295.689 320.316 295.686 320.316 295.683C320.316 295.68 320.316 295.677 320.316 295.674C320.316 295.671 320.316 295.668 320.316 295.665C320.316 295.662 320.316 295.659 320.316 295.656C320.316 295.653 320.316 295.65 320.316 295.647C320.316 295.644 320.316 295.641 320.316 295.638C320.316 295.635 320.316 295.632 320.316 295.63C320.316 295.627 320.316 295.624 320.316 295.621C320.316 295.618 320.316 295.615 320.316 295.612C320.316 295.609 320.316 295.606 320.316 295.603C320.316 295.6 320.316 295.597 320.316 295.594C320.316 295.591 320.316 295.588 320.316 295.585C320.316 295.582 320.316 295.579 320.316 295.576C320.316 295.573 320.316 295.57 320.316 295.567C320.316 295.564 320.316 295.561 320.316 295.558C320.316 295.555 320.316 295.552 320.316 295.549C320.316 295.546 320.316 295.544 320.316 295.541C320.316 295.538 320.316 295.535 320.316 295.532C320.316 295.529 320.316 295.526 320.316 295.523C320.316 295.52 320.316 295.517 320.316 295.514C320.316 295.511 320.316 295.508 320.316 295.505C320.316 295.502 320.316 295.499 320.316 295.496C320.316 295.493 320.316 295.49 320.316 295.487C320.316 295.484 320.316 295.481 320.316 295.478C320.316 295.475 320.316 295.473 320.316 295.47C320.316 295.467 320.316 295.464 320.316 295.461C320.316 295.458 320.316 295.455 320.316 295.452C320.316 295.449 320.316 295.446 320.316 295.443C320.316 295.44 320.316 295.437 320.316 295.434C320.316 295.431 320.316 295.428 320.316 295.425C320.316 295.422 320.316 295.419 320.316 295.416C320.316 295.414 320.316 295.411 320.316 295.408C320.316 295.405 320.316 295.402 320.316 295.399C320.316 295.396 320.316 295.393 320.316 295.39C320.316 295.387 320.316 295.384 320.316 295.381C320.316 295.378 320.316 295.375 320.316 295.372C320.316 295.369 320.316 295.366 320.316 295.363C320.316 295.361 320.316 295.358 320.316 295.355C320.316 295.352 320.316 295.349 320.316 295.346C320.316 295.343 320.316 295.34 320.316 295.337C320.316 295.334 320.316 295.331 320.316 295.328C320.316 295.325 320.316 295.322 320.316 295.319C320.316 295.316 320.316 295.313 320.316 295.311C320.316 295.308 320.316 295.305 320.316 295.302C320.316 295.299 320.316 295.296 320.316 295.293C320.316 295.29 320.316 295.287 320.316 295.284C320.316 295.281 320.316 295.278 320.316 295.275C320.316 295.272 320.316 295.269 320.316 295.266C320.316 295.264 320.316 295.261 320.316 295.258C320.316 295.255 320.316 295.252 320.316 295.249C320.316 295.246 320.316 295.243 320.316 295.24C320.316 295.237 320.316 295.234 320.316 295.231C320.316 295.228 320.316 295.225 320.316 295.223C320.316 295.22 320.316 295.217 320.316 295.214C320.316 295.211 320.316 295.208 320.316 295.205C320.316 295.202 320.316 295.199 320.316 295.196C320.316 295.193 320.316 295.19 320.316 295.187C320.316 295.184 320.316 295.182 320.316 295.179C320.316 295.176 320.316 295.173 320.316 295.17C320.316 295.167 320.316 295.164 320.316 295.161C320.316 295.158 320.316 295.155 320.316 295.152C320.316 295.149 320.316 295.146 320.316 295.144C320.316 295.141 320.316 295.138 320.316 295.135C320.316 295.132 320.316 295.129 320.316 295.126C320.316 295.123 320.316 295.12 320.316 295.117C320.316 295.114 320.316 295.111 320.316 295.109C320.316 295.106 320.316 295.103 320.316 295.1C320.316 295.097 320.316 295.094 320.316 295.091C320.316 295.088 320.316 295.085 320.316 295.082C320.316 295.079 320.316 295.076 320.316 295.074C320.316 295.071 320.316 295.068 320.316 295.065C320.316 295.062 320.316 295.059 320.316 295.056C320.316 295.053 320.316 295.05 320.316 295.047C320.316 295.044 320.316 295.042 320.316 295.039C320.316 295.036 320.316 295.033 320.316 295.03C320.316 295.027 320.316 295.024 320.316 295.021C320.316 295.018 320.316 295.015 320.316 295.012C320.316 295.01 320.316 295.007 320.316 295.004C320.316 295.001 320.316 294.998 320.316 294.995C320.316 294.992 320.316 294.989 320.316 294.986C320.316 294.983 320.316 294.98 320.316 294.978C320.316 294.975 320.316 294.972 320.316 294.969C320.316 294.966 320.316 294.963 320.316 294.96C320.316 294.957 320.316 294.954 320.316 294.951C320.316 294.949 320.316 294.946 320.316 294.943C320.316 294.94 320.316 294.937 320.316 294.934C320.316 294.931 320.316 294.928 320.316 294.925C320.316 294.922 320.316 294.92 320.316 294.917C320.316 294.914 320.316 294.911 320.316 294.908C320.316 294.905 320.316 294.902 320.316 294.899C320.316 294.896 320.316 294.893 320.316 294.891C320.316 294.888 320.316 294.885 320.316 294.882C320.316 294.879 320.316 294.876 320.316 294.873C320.316 294.87 320.316 294.867 320.316 294.865C320.316 294.862 320.316 294.859 320.316 294.856C320.316 294.853 320.316 294.85 320.316 294.847C320.316 294.844 320.316 294.841 320.316 294.839C320.316 294.836 320.316 294.833 320.316 294.83C320.316 294.827 320.316 294.824 320.316 294.821C320.316 294.818 320.316 294.815 320.316 294.813C320.316 294.81 320.316 294.807 320.316 294.804C320.316 294.801 320.316 294.798 320.316 294.795C320.316 294.792 320.316 294.789 320.316 294.787C320.316 294.784 320.316 294.781 320.316 294.778C320.316 294.775 320.316 294.772 320.316 294.769C320.316 294.766 320.316 294.764 320.316 294.761C320.316 294.758 320.316 294.755 320.316 294.752C320.316 294.749 320.316 294.746 320.316 294.743C320.316 294.74 320.316 294.738 320.316 294.735C320.316 294.732 320.316 294.729 320.316 294.726C320.316 294.723 320.316 294.72 320.316 294.717C320.316 294.715 320.316 294.712 320.316 294.709C320.316 294.706 320.316 294.703 320.316 294.7C320.316 294.697 320.316 294.694 320.316 294.692C320.316 294.689 320.316 294.686 320.316 294.683C320.316 294.68 320.316 294.677 320.316 294.674C320.316 294.671 320.316 294.669 320.316 294.666C320.316 294.663 320.316 294.66 320.316 294.657C320.316 294.654 320.316 294.651 320.316 294.648C320.316 294.646 320.316 294.643 320.316 294.64C320.316 294.637 320.316 294.634 320.316 294.631C320.316 294.628 320.316 294.626 320.316 294.623C320.316 294.62 320.316 294.617 320.316 294.614C320.316 294.611 320.316 294.608 320.316 294.605C320.316 294.603 320.316 294.6 320.316 294.597C320.316 294.594 320.316 294.591 320.316 294.588C320.316 294.585 320.316 294.583 320.316 294.58C320.316 294.577 320.316 294.574 320.316 294.571C320.316 294.568 320.316 294.565 320.316 294.563C320.316 294.56 320.316 294.557 320.316 294.554C320.316 294.551 320.316 294.548 320.316 294.545C320.316 294.542 320.316 294.54 320.316 294.537C320.316 294.534 320.316 294.531 320.316 294.528C320.316 294.525 320.316 294.522 320.316 294.52C320.316 294.517 320.316 294.514 320.316 294.511C320.316 294.508 320.316 294.505 320.316 294.503C320.316 294.5 320.316 294.497 320.316 294.494C320.316 294.491 320.316 294.488 320.316 294.485C320.316 294.483 320.316 294.48 320.316 294.477C320.316 294.474 320.316 294.471 320.316 294.468C320.316 294.465 320.316 294.463 320.316 294.46C320.316 294.457 320.316 294.454 320.316 294.451C320.316 294.448 320.316 294.445 320.316 294.443C320.316 294.44 320.316 294.437 320.316 294.434C320.316 294.431 320.316 294.428 320.316 294.426C320.316 294.423 320.316 294.42 320.316 294.417C320.316 294.414 320.316 294.411 320.316 294.408C320.316 294.406 320.316 294.403 320.316 294.4C320.316 294.397 320.316 294.394 320.316 294.391C320.316 294.389 320.316 294.386 320.316 294.383C320.316 294.38 320.316 294.377 320.316 294.374C320.316 294.372 320.316 294.369 320.316 294.366C320.316 294.363 320.316 294.36 320.316 294.357C320.316 294.354 320.316 294.352 320.316 294.349C320.316 294.346 320.316 294.343 320.316 294.34C320.316 294.337 320.316 294.335 320.316 294.332C320.316 294.329 320.316 294.326 320.316 294.323C320.316 294.32 320.316 294.318 320.316 294.315C320.316 294.312 320.316 294.309 320.316 294.306C320.316 294.303 320.316 294.301 320.316 294.298C320.316 294.295 320.316 294.292 320.316 294.289C320.316 294.286 320.316 294.284 320.316 294.281C320.316 294.278 320.316 294.275 320.316 294.272C320.316 294.269 320.316 294.267 320.316 294.264C320.316 294.261 320.316 294.258 320.316 294.255C320.316 294.252 320.316 294.25 320.316 294.247C320.316 294.244 320.316 294.241 320.316 294.238C320.316 294.236 320.316 294.233 320.316 294.23C320.316 294.227 320.316 294.224 320.316 294.221C320.316 294.219 320.316 294.216 320.316 294.213C320.316 294.21 320.316 294.207 320.316 294.204C320.316 294.202 320.316 294.199 320.316 294.196C320.316 294.193 320.316 294.19 320.316 294.187C320.316 294.185 320.316 294.182 320.316 294.179C320.316 294.176 320.316 294.173 320.316 294.171C320.316 294.168 320.316 294.165 320.316 294.162C320.316 294.159 320.316 294.156 320.316 294.154C320.316 294.151 320.316 294.148 320.316 294.145C320.316 294.142 320.316 294.14 320.316 294.137C320.316 294.134 320.316 294.131 320.316 294.128C320.316 294.125 320.316 294.123 320.316 294.12C320.316 294.117 320.316 294.114 320.316 294.111C320.316 294.109 320.316 294.106 320.316 294.103C320.316 294.1 320.316 294.097 320.316 294.095C320.316 294.092 320.316 294.089 320.316 294.086C320.316 294.083 320.316 294.08 320.316 294.078C320.316 294.075 320.316 294.072 320.316 294.069C320.316 294.066 320.316 294.064 320.316 294.061C320.316 294.058 320.316 294.055 320.316 294.052C320.316 294.05 320.316 294.047 320.316 294.044C320.316 294.041 320.316 294.038 320.316 294.036C320.316 294.033 320.316 294.03 320.316 294.027C320.316 294.024 320.316 294.022 320.316 294.019C320.316 294.016 320.316 294.013 320.316 294.01C320.316 294.008 320.316 294.005 320.316 294.002C320.316 293.999 320.316 293.996 320.316 293.994C320.316 293.991 320.316 293.988 320.316 293.985C320.316 293.982 320.316 293.98 320.316 293.977C320.316 293.974 320.316 293.971 320.316 293.968C320.316 293.966 320.316 293.963 320.316 293.96C320.316 293.957 320.316 293.954 320.316 293.952C320.316 293.949 320.316 293.946 320.316 293.943C320.316 293.94 320.316 293.938 320.316 293.935C320.316 293.932 320.316 293.929 320.316 293.926C320.316 293.924 320.316 293.921 320.316 293.918C320.316 293.915 320.316 293.912 320.316 293.91C320.316 293.907 320.316 293.904 320.316 293.901C320.316 293.898 320.316 293.896 320.316 293.893C320.316 293.89 320.316 293.887 320.316 293.885C320.316 293.882 320.316 293.879 320.316 293.876C320.316 293.873 320.316 293.871 320.316 293.868C320.316 293.865 320.316 293.862 320.316 293.859C320.316 293.857 320.316 293.854 320.316 293.851C320.316 293.848 320.316 293.846 320.316 293.843C320.316 293.84 320.316 293.837 320.316 293.834C320.316 293.832 320.316 293.829 320.316 293.826C320.316 293.823 320.316 293.82 320.316 293.818C320.316 293.815 320.316 293.812 320.316 293.809C320.316 293.807 320.316 293.804 320.316 293.801C320.316 293.798 320.316 293.795 320.316 293.793C320.316 293.79 320.316 293.787 320.316 293.784C320.316 293.782 320.316 293.779 320.316 293.776C320.316 293.773 320.316 293.77 320.316 293.768C320.316 293.765 320.316 293.762 320.316 293.759C320.316 293.757 320.316 293.754 320.316 293.751C320.316 293.748 320.316 293.745 320.316 293.743C320.316 293.74 320.316 293.737 320.316 293.734C320.316 293.732 320.316 293.729 320.316 293.726C320.316 293.723 320.316 293.72 320.316 293.718C320.316 293.715 320.316 293.712 320.316 293.709C320.316 293.707 320.316 293.704 320.316 293.701C320.316 293.698 320.316 293.696 320.316 293.693C320.316 293.69 320.316 293.687 320.316 293.684C320.316 293.682 320.316 293.679 320.316 293.676C320.316 293.673 320.316 293.671 320.316 293.668C320.316 293.665 320.316 293.662 320.316 293.66C320.316 293.657 320.316 293.654 320.316 293.651C320.316 293.649 320.316 293.646 320.316 293.643C320.316 293.64 320.316 293.637 320.316 293.635C320.316 293.632 320.316 293.629 320.316 293.626C320.316 293.624 320.316 293.621 320.316 293.618C320.316 293.615 320.316 293.613 320.316 293.61C320.316 293.607 320.316 293.604 320.316 293.602C320.316 293.599 320.316 293.596 320.316 293.593C320.316 293.591 320.316 293.588 320.316 293.585C320.316 293.582 320.316 293.58 320.316 293.577C320.316 293.574 320.316 293.571 320.316 293.568C320.316 293.566 320.316 293.563 320.316 293.56C320.316 293.557 320.316 293.555 320.316 293.552C320.316 293.549 320.316 293.546 320.316 293.544C320.316 293.541 320.316 293.538 320.316 293.535C320.316 293.533 320.316 293.53 320.316 293.527C320.316 293.524 320.316 293.522 320.316 293.519C320.316 293.516 320.316 293.513 320.316 293.511C320.316 293.508 320.316 293.505 320.316 293.502H310.025C310.025 293.505 310.025 293.508 310.025 293.511C310.025 293.513 310.025 293.516 310.025 293.519C310.025 293.522 310.025 293.524 310.025 293.527C310.025 293.53 310.025 293.533 310.025 293.535C310.025 293.538 310.025 293.541 310.025 293.544C310.025 293.546 310.025 293.549 310.025 293.552C310.025 293.555 310.025 293.557 310.025 293.56C310.025 293.563 310.025 293.566 310.025 293.568C310.025 293.571 310.025 293.574 310.025 293.577C310.025 293.58 310.025 293.582 310.025 293.585C310.025 293.588 310.025 293.591 310.025 293.593C310.025 293.596 310.025 293.599 310.025 293.602C310.025 293.604 310.025 293.607 310.025 293.61C310.025 293.613 310.025 293.615 310.025 293.618C310.025 293.621 310.025 293.624 310.025 293.626C310.025 293.629 310.025 293.632 310.025 293.635C310.025 293.637 310.025 293.64 310.025 293.643C310.025 293.646 310.025 293.649 310.025 293.651C310.025 293.654 310.025 293.657 310.025 293.66C310.025 293.662 310.025 293.665 310.025 293.668C310.025 293.671 310.025 293.673 310.025 293.676C310.025 293.679 310.025 293.682 310.025 293.684C310.025 293.687 310.025 293.69 310.025 293.693C310.025 293.696 310.025 293.698 310.025 293.701C310.025 293.704 310.025 293.707 310.025 293.709C310.025 293.712 310.025 293.715 310.025 293.718C310.025 293.72 310.025 293.723 310.025 293.726C310.025 293.729 310.025 293.732 310.025 293.734C310.025 293.737 310.025 293.74 310.025 293.743C310.025 293.745 310.025 293.748 310.025 293.751C310.025 293.754 310.025 293.757 310.025 293.759C310.025 293.762 310.025 293.765 310.025 293.768C310.025 293.77 310.025 293.773 310.025 293.776C310.025 293.779 310.025 293.782 310.025 293.784C310.025 293.787 310.025 293.79 310.025 293.793C310.025 293.795 310.025 293.798 310.025 293.801C310.025 293.804 310.025 293.807 310.025 293.809C310.025 293.812 310.025 293.815 310.025 293.818C310.025 293.82 310.025 293.823 310.025 293.826C310.025 293.829 310.025 293.832 310.025 293.834C310.025 293.837 310.025 293.84 310.025 293.843C310.025 293.846 310.025 293.848 310.025 293.851C310.025 293.854 310.025 293.857 310.025 293.859C310.025 293.862 310.025 293.865 310.025 293.868C310.025 293.871 310.025 293.873 310.025 293.876C310.025 293.879 310.025 293.882 310.025 293.885C310.025 293.887 310.025 293.89 310.025 293.893C310.025 293.896 310.025 293.898 310.025 293.901C310.025 293.904 310.025 293.907 310.025 293.91C310.025 293.912 310.025 293.915 310.025 293.918C310.025 293.921 310.025 293.924 310.025 293.926C310.025 293.929 310.025 293.932 310.025 293.935C310.025 293.938 310.025 293.94 310.025 293.943C310.025 293.946 310.025 293.949 310.025 293.952C310.025 293.954 310.025 293.957 310.025 293.96C310.025 293.963 310.025 293.966 310.025 293.968C310.025 293.971 310.025 293.974 310.025 293.977C310.025 293.98 310.025 293.982 310.025 293.985C310.025 293.988 310.025 293.991 310.025 293.994C310.025 293.996 310.025 293.999 310.025 294.002C310.025 294.005 310.025 294.008 310.025 294.01C310.025 294.013 310.025 294.016 310.025 294.019C310.025 294.022 310.025 294.024 310.025 294.027C310.025 294.03 310.025 294.033 310.025 294.036C310.025 294.038 310.025 294.041 310.025 294.044C310.025 294.047 310.025 294.05 310.025 294.052C310.025 294.055 310.025 294.058 310.025 294.061C310.025 294.064 310.025 294.066 310.025 294.069C310.025 294.072 310.025 294.075 310.025 294.078C310.025 294.08 310.025 294.083 310.025 294.086C310.025 294.089 310.025 294.092 310.025 294.095C310.025 294.097 310.025 294.1 310.025 294.103C310.025 294.106 310.025 294.109 310.025 294.111C310.025 294.114 310.025 294.117 310.025 294.12C310.025 294.123 310.025 294.125 310.025 294.128C310.025 294.131 310.025 294.134 310.025 294.137C310.025 294.14 310.025 294.142 310.025 294.145C310.025 294.148 310.025 294.151 310.025 294.154C310.025 294.156 310.025 294.159 310.025 294.162C310.025 294.165 310.025 294.168 310.025 294.171C310.025 294.173 310.025 294.176 310.025 294.179C310.025 294.182 310.025 294.185 310.025 294.187C310.025 294.19 310.025 294.193 310.025 294.196C310.025 294.199 310.025 294.202 310.025 294.204C310.025 294.207 310.025 294.21 310.025 294.213C310.025 294.216 310.025 294.219 310.025 294.221C310.025 294.224 310.025 294.227 310.025 294.23C310.025 294.233 310.025 294.236 310.025 294.238C310.025 294.241 310.025 294.244 310.025 294.247C310.025 294.25 310.025 294.252 310.025 294.255C310.025 294.258 310.025 294.261 310.025 294.264C310.025 294.267 310.025 294.269 310.025 294.272C310.025 294.275 310.025 294.278 310.025 294.281C310.025 294.284 310.025 294.286 310.025 294.289C310.025 294.292 310.025 294.295 310.025 294.298C310.025 294.301 310.025 294.303 310.025 294.306C310.025 294.309 310.025 294.312 310.025 294.315C310.025 294.318 310.025 294.32 310.025 294.323C310.025 294.326 310.025 294.329 310.025 294.332C310.025 294.335 310.025 294.337 310.025 294.34C310.025 294.343 310.025 294.346 310.025 294.349C310.025 294.352 310.025 294.354 310.025 294.357C310.025 294.36 310.025 294.363 310.025 294.366C310.025 294.369 310.025 294.372 310.025 294.374C310.025 294.377 310.025 294.38 310.025 294.383C310.025 294.386 310.025 294.389 310.025 294.391C310.025 294.394 310.025 294.397 310.025 294.4C310.025 294.403 310.025 294.406 310.025 294.408C310.025 294.411 310.025 294.414 310.025 294.417C310.025 294.42 310.025 294.423 310.025 294.426C310.025 294.428 310.025 294.431 310.025 294.434C310.025 294.437 310.025 294.44 310.025 294.443C310.025 294.445 310.025 294.448 310.025 294.451C310.025 294.454 310.025 294.457 310.025 294.46C310.025 294.463 310.025 294.465 310.025 294.468C310.025 294.471 310.025 294.474 310.025 294.477C310.025 294.48 310.025 294.483 310.025 294.485C310.025 294.488 310.025 294.491 310.025 294.494C310.025 294.497 310.025 294.5 310.025 294.503C310.025 294.505 310.025 294.508 310.025 294.511C310.025 294.514 310.025 294.517 310.025 294.52C310.025 294.522 310.025 294.525 310.025 294.528C310.025 294.531 310.025 294.534 310.025 294.537C310.025 294.54 310.025 294.542 310.025 294.545C310.025 294.548 310.025 294.551 310.025 294.554C310.025 294.557 310.025 294.56 310.025 294.563C310.025 294.565 310.025 294.568 310.025 294.571C310.025 294.574 310.025 294.577 310.025 294.58C310.025 294.583 310.025 294.585 310.025 294.588C310.025 294.591 310.025 294.594 310.025 294.597C310.025 294.6 310.025 294.603 310.025 294.605C310.025 294.608 310.025 294.611 310.025 294.614C310.025 294.617 310.025 294.62 310.025 294.623C310.025 294.626 310.025 294.628 310.025 294.631C310.025 294.634 310.025 294.637 310.025 294.64C310.025 294.643 310.025 294.646 310.025 294.648C310.025 294.651 310.025 294.654 310.025 294.657C310.025 294.66 310.025 294.663 310.025 294.666C310.025 294.669 310.025 294.671 310.025 294.674C310.025 294.677 310.025 294.68 310.025 294.683C310.025 294.686 310.025 294.689 310.025 294.692C310.025 294.694 310.025 294.697 310.025 294.7C310.025 294.703 310.025 294.706 310.025 294.709C310.025 294.712 310.025 294.715 310.025 294.717C310.025 294.72 310.025 294.723 310.025 294.726C310.025 294.729 310.025 294.732 310.025 294.735C310.025 294.738 310.025 294.74 310.025 294.743C310.025 294.746 310.025 294.749 310.025 294.752C310.025 294.755 310.025 294.758 310.025 294.761C310.025 294.764 310.025 294.766 310.025 294.769C310.025 294.772 310.025 294.775 310.025 294.778C310.025 294.781 310.025 294.784 310.025 294.787C310.025 294.789 310.025 294.792 310.025 294.795C310.025 294.798 310.025 294.801 310.025 294.804C310.025 294.807 310.025 294.81 310.025 294.813C310.025 294.815 310.025 294.818 310.025 294.821C310.025 294.824 310.025 294.827 310.025 294.83C310.025 294.833 310.025 294.836 310.025 294.839C310.025 294.841 310.025 294.844 310.025 294.847C310.025 294.85 310.025 294.853 310.025 294.856C310.025 294.859 310.025 294.862 310.025 294.865C310.025 294.867 310.025 294.87 310.025 294.873C310.025 294.876 310.025 294.879 310.025 294.882C310.025 294.885 310.025 294.888 310.025 294.891C310.025 294.893 310.025 294.896 310.025 294.899C310.025 294.902 310.025 294.905 310.025 294.908C310.025 294.911 310.025 294.914 310.025 294.917C310.025 294.92 310.025 294.922 310.025 294.925C310.025 294.928 310.025 294.931 310.025 294.934C310.025 294.937 310.025 294.94 310.025 294.943C310.025 294.946 310.025 294.949 310.025 294.951C310.025 294.954 310.025 294.957 310.025 294.96C310.025 294.963 310.025 294.966 310.025 294.969C310.025 294.972 310.025 294.975 310.025 294.978C310.025 294.98 310.025 294.983 310.025 294.986C310.025 294.989 310.025 294.992 310.025 294.995C310.025 294.998 310.025 295.001 310.025 295.004C310.025 295.007 310.025 295.01 310.025 295.012C310.025 295.015 310.025 295.018 310.025 295.021C310.025 295.024 310.025 295.027 310.025 295.03C310.025 295.033 310.025 295.036 310.025 295.039C310.025 295.042 310.025 295.044 310.025 295.047C310.025 295.05 310.025 295.053 310.025 295.056C310.025 295.059 310.025 295.062 310.025 295.065C310.025 295.068 310.025 295.071 310.025 295.074C310.025 295.076 310.025 295.079 310.025 295.082C310.025 295.085 310.025 295.088 310.025 295.091C310.025 295.094 310.025 295.097 310.025 295.1C310.025 295.103 310.025 295.106 310.025 295.109C310.025 295.111 310.025 295.114 310.025 295.117C310.025 295.12 310.025 295.123 310.025 295.126C310.025 295.129 310.025 295.132 310.025 295.135C310.025 295.138 310.025 295.141 310.025 295.144C310.025 295.146 310.025 295.149 310.025 295.152C310.025 295.155 310.025 295.158 310.025 295.161C310.025 295.164 310.025 295.167 310.025 295.17C310.025 295.173 310.025 295.176 310.025 295.179C310.025 295.182 310.025 295.184 310.025 295.187C310.025 295.19 310.025 295.193 310.025 295.196C310.025 295.199 310.025 295.202 310.025 295.205C310.025 295.208 310.025 295.211 310.025 295.214C310.025 295.217 310.025 295.22 310.025 295.223C310.025 295.225 310.025 295.228 310.025 295.231C310.025 295.234 310.025 295.237 310.025 295.24C310.025 295.243 310.025 295.246 310.025 295.249C310.025 295.252 310.025 295.255 310.025 295.258C310.025 295.261 310.025 295.264 310.025 295.266C310.025 295.269 310.025 295.272 310.025 295.275C310.025 295.278 310.025 295.281 310.025 295.284C310.025 295.287 310.025 295.29 310.025 295.293C310.025 295.296 310.025 295.299 310.025 295.302C310.025 295.305 310.025 295.308 310.025 295.311C310.025 295.313 310.025 295.316 310.025 295.319C310.025 295.322 310.025 295.325 310.025 295.328C310.025 295.331 310.025 295.334 310.025 295.337C310.025 295.34 310.025 295.343 310.025 295.346C310.025 295.349 310.025 295.352 310.025 295.355C310.025 295.358 310.025 295.361 310.025 295.363C310.025 295.366 310.025 295.369 310.025 295.372C310.025 295.375 310.025 295.378 310.025 295.381C310.025 295.384 310.025 295.387 310.025 295.39C310.025 295.393 310.025 295.396 310.025 295.399C310.025 295.402 310.025 295.405 310.025 295.408C310.025 295.411 310.025 295.414 310.025 295.416C310.025 295.419 310.025 295.422 310.025 295.425C310.025 295.428 310.025 295.431 310.025 295.434C310.025 295.437 310.025 295.44 310.025 295.443C310.025 295.446 310.025 295.449 310.025 295.452C310.025 295.455 310.025 295.458 310.025 295.461C310.025 295.464 310.025 295.467 310.025 295.47C310.025 295.473 310.025 295.475 310.025 295.478C310.025 295.481 310.025 295.484 310.025 295.487C310.025 295.49 310.025 295.493 310.025 295.496C310.025 295.499 310.025 295.502 310.025 295.505C310.025 295.508 310.025 295.511 310.025 295.514C310.025 295.517 310.025 295.52 310.025 295.523C310.025 295.526 310.025 295.529 310.025 295.532C310.025 295.535 310.025 295.538 310.025 295.541C310.025 295.544 310.025 295.546 310.025 295.549C310.025 295.552 310.025 295.555 310.025 295.558C310.025 295.561 310.025 295.564 310.025 295.567C310.025 295.57 310.025 295.573 310.025 295.576C310.025 295.579 310.025 295.582 310.025 295.585C310.025 295.588 310.025 295.591 310.025 295.594C310.025 295.597 310.025 295.6 310.025 295.603C310.025 295.606 310.025 295.609 310.025 295.612C310.025 295.615 310.025 295.618 310.025 295.621C310.025 295.624 310.025 295.627 310.025 295.63C310.025 295.632 310.025 295.635 310.025 295.638C310.025 295.641 310.025 295.644 310.025 295.647C310.025 295.65 310.025 295.653 310.025 295.656C310.025 295.659 310.025 295.662 310.025 295.665C310.025 295.668 310.025 295.671 310.025 295.674C310.025 295.677 310.025 295.68 310.025 295.683C310.025 295.686 310.025 295.689 310.025 295.692C310.025 295.695 310.025 295.698 310.025 295.701C310.025 295.704 310.025 295.707 310.025 295.71C310.025 295.713 310.025 295.716 310.025 295.719C310.025 295.722 310.025 295.725 310.025 295.728C310.025 295.731 310.025 295.734 310.025 295.737C310.025 295.74 310.025 295.743 310.025 295.746C310.025 295.749 310.025 295.752 310.025 295.755C310.025 295.758 310.025 295.76 310.025 295.763C310.025 295.766 310.025 295.769 310.025 295.772C310.025 295.775 310.025 295.778 310.025 295.781C310.025 295.784 310.025 295.787 310.025 295.79C310.025 295.793 310.025 295.796 310.025 295.799C310.025 295.802 310.025 295.805 310.025 295.808C310.025 295.811 310.025 295.814 310.025 295.817C310.025 295.82 310.025 295.823 310.025 295.826C310.025 295.829 310.025 295.832 310.025 295.835C310.025 295.838 310.025 295.841 310.025 295.844C310.025 295.847 310.025 295.85 310.025 295.853C310.025 295.856 310.025 295.859 310.025 295.862C310.025 295.865 310.025 295.868 310.025 295.871C310.025 295.874 310.025 295.877 310.025 295.88C310.025 295.883 310.025 295.886 310.025 295.889C310.025 295.892 310.025 295.895 310.025 295.898C310.025 295.901 310.025 295.904 310.025 295.907C310.025 295.91 310.025 295.913 310.025 295.916C310.025 295.919 310.025 295.922 310.025 295.925C310.025 295.928 310.025 295.931 310.025 295.934C310.025 295.937 310.025 295.94 310.025 295.943C310.025 295.946 310.025 295.949 310.025 295.952C310.025 295.955 310.025 295.958 310.025 295.961C310.025 295.964 310.025 295.967 310.025 295.97C310.025 295.973 310.025 295.976 310.025 295.979C310.025 295.982 310.025 295.985 310.025 295.988C310.025 295.991 310.025 295.994 310.025 295.997C310.025 296 310.025 296.003 310.025 296.006C310.025 296.009 310.025 296.012 310.025 296.015C310.025 296.018 310.025 296.021 310.025 296.024C310.025 296.027 310.025 296.03 310.025 296.033C310.025 296.036 310.025 296.039 310.025 296.042C310.025 296.045 310.025 296.048 310.025 296.051C310.025 296.054 310.025 296.057 310.025 296.06C310.025 296.063 310.025 296.066 310.025 296.069C310.025 296.072 310.025 296.075 310.025 296.078C310.025 296.081 310.025 296.084 310.025 296.087C310.025 296.09 310.025 296.093 310.025 296.096C310.025 296.099 310.025 296.102 310.025 296.105C310.025 296.109 310.025 296.112 310.025 296.115C310.025 296.118 310.025 296.121 310.025 296.124C310.025 296.127 310.025 296.13 310.025 296.133C310.025 296.136 310.025 296.139 310.025 296.142C310.025 296.145 310.025 296.148 310.025 296.151C310.025 296.154 310.025 296.157 310.025 296.16C310.025 296.163 310.025 296.166 310.025 296.169C310.025 296.172 310.025 296.175 310.025 296.178C310.025 296.181 310.025 296.184 310.025 296.187C310.025 296.19 310.025 296.193 310.025 296.196C310.025 296.199 310.025 296.202 310.025 296.205C310.025 296.208 310.025 296.211 310.025 296.214C310.025 296.217 310.025 296.22 310.025 296.223C310.025 296.226 310.025 296.229 310.025 296.232C310.025 296.236 310.025 296.239 310.025 296.242C310.025 296.245 310.025 296.248 310.025 296.251C310.025 296.254 310.025 296.257 310.025 296.26C310.025 296.263 310.025 296.266 310.025 296.269C310.025 296.272 310.025 296.275 310.025 296.278C310.025 296.281 310.025 296.284 310.025 296.287C310.025 296.29 310.025 296.293 310.025 296.296C310.025 296.299 310.025 296.302 310.025 296.305C310.025 296.308 310.025 296.311 310.025 296.314C310.025 296.317 310.025 296.32 310.025 296.324C310.025 296.327 310.025 296.33 310.025 296.333C310.025 296.336 310.025 296.339 310.025 296.342C310.025 296.345 310.025 296.348 310.025 296.351C310.025 296.354 310.025 296.357 310.025 296.36C310.025 296.363 310.025 296.366 310.025 296.369C310.025 296.372 310.025 296.375 310.025 296.378C310.025 296.381 310.025 296.384 310.025 296.387C310.025 296.39 310.025 296.393 310.025 296.397C310.025 296.4 310.025 296.403 310.025 296.406C310.025 296.409 310.025 296.412 310.025 296.415C310.025 296.418 310.025 296.421 310.025 296.424C310.025 296.427 310.025 296.43 310.025 296.433C310.025 296.436 310.025 296.439 310.025 296.442C310.025 296.445 310.025 296.448 310.025 296.451C310.025 296.454 310.025 296.458 310.025 296.461C310.025 296.464 310.025 296.467 310.025 296.47C310.025 296.473 310.025 296.476 310.025 296.479C310.025 296.482 310.025 296.485 310.025 296.488C310.025 296.491 310.025 296.494 310.025 296.497C310.025 296.5 310.025 296.503 310.025 296.506C310.025 296.509 310.025 296.512 310.025 296.516C310.025 296.519 310.025 296.522 310.025 296.525C310.025 296.528 310.025 296.531 310.025 296.534C310.025 296.537 310.025 296.54 310.025 296.543C310.025 296.546 310.025 296.549 310.025 296.552C310.025 296.555 310.025 296.558 310.025 296.561C310.025 296.565 310.025 296.568 310.025 296.571C310.025 296.574 310.025 296.577 310.025 296.58C310.025 296.583 310.025 296.586 310.025 296.589C310.025 296.592 310.025 296.595 310.025 296.598C310.025 296.601 310.025 296.604 310.025 296.607C310.025 296.61 310.025 296.614 310.025 296.617C310.025 296.62 310.025 296.623 310.025 296.626C310.025 296.629 310.025 296.632 310.025 296.635C310.025 296.638 310.025 296.641 310.025 296.644C310.025 296.647 310.025 296.65 310.025 296.653C310.025 296.657 310.025 296.66 310.025 296.663C310.025 296.666 310.025 296.669 310.025 296.672C310.025 296.675 310.025 296.678 310.025 296.681C310.025 296.684 310.025 296.687 310.025 296.69C310.025 296.693 310.025 296.696 310.025 296.7C310.025 296.703 310.025 296.706 310.025 296.709C310.025 296.712 310.025 296.715 310.025 296.718C310.025 296.721 310.025 296.724 310.025 296.727C310.025 296.73 310.025 296.733 310.025 296.736C310.025 296.74 310.025 296.743 310.025 296.746C310.025 296.749 310.025 296.752 310.025 296.755C310.025 296.758 310.025 296.761 310.025 296.764C310.025 296.767 310.025 296.77 310.025 296.773C310.025 296.777 310.025 296.78 310.025 296.783C310.025 296.786 310.025 296.789 310.025 296.792C310.025 296.795 310.025 296.798 310.025 296.801C310.025 296.804 310.025 296.807 310.025 296.81C310.025 296.814 310.025 296.817 310.025 296.82C310.025 296.823 310.025 296.826 310.025 296.829C310.025 296.832 310.025 296.835 310.025 296.838C310.025 296.841 310.025 296.844 310.025 296.848C310.025 296.851 310.025 296.854 310.025 296.857C310.025 296.86 310.025 296.863 310.025 296.866C310.025 296.869 310.025 296.872 310.025 296.875C310.025 296.878 310.025 296.882 310.025 296.885C310.025 296.888 310.025 296.891 310.025 296.894C310.025 296.897 310.025 296.9 310.025 296.903C310.025 296.906 310.025 296.909 310.025 296.912C310.025 296.916 310.025 296.919 310.025 296.922C310.025 296.925 310.025 296.928 310.025 296.931C310.025 296.934 310.025 296.937 310.025 296.94C310.025 296.943 310.025 296.947 310.025 296.95C310.025 296.953 310.025 296.956 310.025 296.959C310.025 296.962 310.025 296.965 310.025 296.968C310.025 296.971 310.025 296.974 310.025 296.978C310.025 296.981 310.025 296.984 310.025 296.987C310.025 296.99 310.025 296.993 310.025 296.996C310.025 296.999 310.025 297.002 310.025 297.005C310.025 297.009 310.025 297.012 310.025 297.015C310.025 297.018 310.025 297.021 310.025 297.024C310.025 297.027 310.025 297.03 310.025 297.033C310.025 297.037 310.025 297.04 310.025 297.043C310.025 297.046 310.025 297.049 310.025 297.052C310.025 297.055 310.025 297.058 310.025 297.061C310.025 297.065 310.025 297.068 310.025 297.071C310.025 297.074 310.025 297.077 310.025 297.08C310.025 297.083 310.025 297.086 310.025 297.089C310.025 297.093 310.025 297.096 310.025 297.099C310.025 297.102 310.025 297.105 310.025 297.108C310.025 297.111 310.025 297.114 310.025 297.117C310.025 297.121 310.025 297.124 310.025 297.127C310.025 297.13 310.025 297.133 310.025 297.136C310.025 297.139 310.025 297.142 310.025 297.146C310.025 297.149 310.025 297.152 310.025 297.155C310.025 297.158 310.025 297.161 310.025 297.164C310.025 297.167 310.025 297.17 310.025 297.174C310.025 297.177 310.025 297.18 310.025 297.183C310.025 297.186 310.025 297.189 310.025 297.192C310.025 297.195 310.025 297.199 310.025 297.202C310.025 297.205 310.025 297.208 310.025 297.211C310.025 297.214 310.025 297.217 310.025 297.22C310.025 297.224 310.025 297.227 310.025 297.23C310.025 297.233 310.025 297.236 310.025 297.239C310.025 297.242 310.025 297.245 310.025 297.249C310.025 297.252 310.025 297.255 310.025 297.258C310.025 297.261 310.025 297.264 310.025 297.267C310.025 297.27 310.025 297.274 310.025 297.277C310.025 297.28 310.025 297.283 310.025 297.286C310.025 297.289 310.025 297.292 310.025 297.296C310.025 297.299 310.025 297.302 310.025 297.305C310.025 297.308 310.025 297.311 310.025 297.314C310.025 297.317 310.025 297.321 310.025 297.324C310.025 297.327 310.025 297.33 310.025 297.333C310.025 297.336 310.025 297.339 310.025 297.343C310.025 297.346 310.025 297.349 310.025 297.352C310.025 297.355 310.025 297.358 310.025 297.361C310.025 297.365 310.025 297.368 310.025 297.371C310.025 297.374 310.025 297.377 310.025 297.38C310.025 297.383 310.025 297.387 310.025 297.39C310.025 297.393 310.025 297.396 310.025 297.399C310.025 297.402 310.025 297.405 310.025 297.409C310.025 297.412 310.025 297.415 310.025 297.418C310.025 297.421 310.025 297.424 310.025 297.427C310.025 297.431 310.025 297.434 310.025 297.437C310.025 297.44 310.025 297.443 310.025 297.446C310.025 297.449 310.025 297.453 310.025 297.456C310.025 297.459 310.025 297.462 310.025 297.465C310.025 297.468 310.025 297.471 310.025 297.475C310.025 297.478 310.025 297.481 310.025 297.484C310.025 297.487 310.025 297.49 310.025 297.493C310.025 297.497 310.025 297.5 310.025 297.503C310.025 297.506 310.025 297.509 310.025 297.512C310.025 297.516 310.025 297.519 310.025 297.522C310.025 297.525 310.025 297.528 310.025 297.531C310.025 297.534 310.025 297.538 310.025 297.541C310.025 297.544 310.025 297.547 310.025 297.55C310.025 297.553 310.025 297.557 310.025 297.56C310.025 297.563 310.025 297.566 310.025 297.569C310.025 297.572 310.025 297.576 310.025 297.579C310.025 297.582 310.025 297.585 310.025 297.588C310.025 297.591 310.025 297.594 310.025 297.598C310.025 297.601 310.025 297.604 310.025 297.607C310.025 297.61 310.025 297.613 310.025 297.617C310.025 297.62 310.025 297.623 310.025 297.626C310.025 297.629 310.025 297.632 310.025 297.636C310.025 297.639 310.025 297.642 310.025 297.645C310.025 297.648 310.025 297.651 310.025 297.655C310.025 297.658 310.025 297.661 310.025 297.664C310.025 297.667 310.025 297.67 310.025 297.674C310.025 297.677 310.025 297.68 310.025 297.683C310.025 297.686 310.025 297.689 310.025 297.693C310.025 297.696 310.025 297.699 310.025 297.702C310.025 297.705 310.025 297.708 310.025 297.712C310.025 297.715 310.025 297.718 310.025 297.721C310.025 297.724 310.025 297.728 310.025 297.731C310.025 297.734 310.025 297.737 310.025 297.74C310.025 297.743 310.025 297.747 310.025 297.75C310.025 297.753 310.025 297.756 310.025 297.759C310.025 297.762 310.025 297.766 310.025 297.769C310.025 297.772 310.025 297.775 310.025 297.778C310.025 297.782 310.025 297.785 310.025 297.788C310.025 297.791 310.025 297.794 310.025 297.797C310.025 297.801 310.025 297.804 310.025 297.807C310.025 297.81 310.025 297.813 310.025 297.816C310.025 297.82 310.025 297.823 310.025 297.826C310.025 297.829 310.025 297.832 310.025 297.836C310.025 297.839 310.025 297.842 310.025 297.845C310.025 297.848 310.025 297.852 310.025 297.855C310.025 297.858 310.025 297.861 310.025 297.864C310.025 297.867 310.025 297.871 310.025 297.874C310.025 297.877 310.025 297.88 310.025 297.883C310.025 297.887 310.025 297.89 310.025 297.893C310.025 297.896 310.025 297.899 310.025 297.903C310.025 297.906 310.025 297.909 310.025 297.912C310.025 297.915 310.025 297.918 310.025 297.922C310.025 297.925 310.025 297.928 310.025 297.931C310.025 297.934 310.025 297.938 310.025 297.941C310.025 297.944 310.025 297.947 310.025 297.95C310.025 297.954 310.025 297.957 310.025 297.96C310.025 297.963 310.025 297.966 310.025 297.97C310.025 297.973 310.025 297.976 310.025 297.979C310.025 297.982 310.025 297.986 310.025 297.989C310.025 297.992 310.025 297.995 310.025 297.998C310.025 298.002 310.025 298.005 310.025 298.008C310.025 298.011 310.025 298.014 310.025 298.018C310.025 298.021 310.025 298.024 310.025 298.027C310.025 298.03 310.025 298.034 310.025 298.037C310.025 298.04 310.025 298.043 310.025 298.046C310.025 298.05 310.025 298.053 310.025 298.056C310.025 298.059 310.025 298.062 310.025 298.066C310.025 298.069 310.025 298.072 310.025 298.075H320.316ZM320.316 293.502C320.316 291.715 320.178 289.888 319.912 288.026L309.725 289.482C309.928 290.903 310.025 292.242 310.025 293.502H320.316ZM311.98 293.045C319.068 297.735 323.98 302.9 327.009 308.454L336.044 303.526C332.038 296.181 325.811 289.856 317.658 284.462L311.98 293.045ZM327.064 308.551C330.285 314.163 331.833 319.852 331.833 325.688H342.124C342.124 317.922 340.037 310.48 335.989 303.428L327.064 308.551ZM331.833 325.688C331.833 331.154 330.467 337.184 327.525 343.831L336.935 347.996C340.325 340.338 342.124 332.884 342.124 325.688H331.833ZM327.509 343.867C324.748 350.239 320.569 356.277 314.873 361.973L322.15 369.25C328.649 362.752 333.615 355.658 336.952 347.959L327.509 343.867ZM314.909 361.938C309.305 367.433 302.331 372.091 293.899 375.864L298.101 385.258C307.491 381.057 315.524 375.749 322.115 369.285L314.909 361.938ZM293.95 375.841C285.806 379.377 276.209 381.219 265.046 381.219V391.51C277.333 391.51 288.372 389.482 298.049 385.28L293.95 375.841ZM265.046 381.219C255.912 381.219 246.831 380.261 237.8 378.341L235.66 388.408C245.389 390.475 255.186 391.51 265.046 391.51V381.219ZM237.8 378.341C228.815 376.432 220.233 373.515 212.046 369.589L207.597 378.869C216.528 383.151 225.885 386.331 235.66 388.408L237.8 378.341ZM212.097 369.614C203.948 365.596 196.346 360.512 189.286 354.348L182.518 362.101C190.231 368.835 198.575 374.42 207.545 378.844L212.097 369.614ZM189.286 354.348C182.323 348.27 176.27 341.006 171.134 332.52L162.33 337.849C167.981 347.186 174.707 355.282 182.518 362.101L189.286 354.348ZM171.134 332.52C166.022 324.076 161.916 314.269 158.857 303.053L148.929 305.761C152.201 317.759 156.654 328.472 162.33 337.849L171.134 332.52ZM158.87 303.1C155.952 291.991 154.466 279.483 154.466 265.538H144.175C144.175 280.202 145.736 293.607 148.916 305.714L158.87 303.1ZM154.466 265.538C154.466 251.928 155.838 239.498 158.545 228.223L148.538 225.821C145.616 237.995 144.175 251.243 144.175 265.538H154.466ZM158.536 228.258C161.379 216.771 165.226 206.504 170.046 197.425L160.956 192.6C155.692 202.515 151.565 213.588 148.546 225.785L158.536 228.258ZM170.035 197.445C175.003 188.186 180.729 180.116 187.198 173.202L179.682 166.171C172.549 173.796 166.316 182.609 160.967 192.579L170.035 197.445ZM187.196 173.204C193.838 166.111 200.886 160.248 208.333 155.579L202.867 146.86C194.603 152.04 186.878 158.488 179.684 166.169L187.196 173.204ZM208.304 155.597C215.888 150.913 223.778 147.417 231.979 145.09L229.17 135.189C220.018 137.786 211.258 141.677 202.896 146.842L208.304 155.597ZM232.023 145.077C240.373 142.628 248.62 141.416 256.78 141.416V131.125C247.586 131.125 238.364 132.492 229.126 135.202L232.023 145.077Z" fill="black"/>
</svg>
