<svg width="24" height="25" viewBox="0 0 24 25" fill="none" xmlns="http://www.w3.org/2000/svg">
<mask id="mask0_1306_4436" style="mask-type:alpha" maskUnits="userSpaceOnUse" x="2" y="3" width="20" height="20">
<path fill-rule="evenodd" clip-rule="evenodd" d="M2 3.8597H22V22.0257H2V3.8597Z" fill="white"/>
</mask>
<g mask="url(#mask0_1306_4436)">
<path fill-rule="evenodd" clip-rule="evenodd" d="M3.5 15.8387V17.8837C3.5 18.5897 3.774 19.2527 4.273 19.7517C4.772 20.2507 5.436 20.5257 6.141 20.5257H17.857C19.313 20.5257 20.499 19.3417 20.5 17.8857V15.8377C19.214 15.5047 18.261 14.3337 18.26 12.9447C18.26 11.5557 19.213 10.3847 20.499 10.0507L20.5 8.0057C20.501 6.5477 19.318 5.3607 17.861 5.3597H6.144C4.687 5.3597 3.501 6.5447 3.5 8.0017V10.1187C3.986 10.2347 4.437 10.4737 4.812 10.8237C5.381 11.3547 5.709 12.0747 5.737 12.8527C5.74 14.3187 4.787 15.5027 3.5 15.8387ZM17.857 22.0257H6.142C5.035 22.0257 3.995 21.5957 3.212 20.8127C2.43 20.0297 2 18.9897 2 17.8837V15.1837C2 14.7697 2.336 14.4337 2.75 14.4337C3.574 14.4327 4.24 13.7647 4.239 12.9447C4.225 12.5267 4.065 12.1787 3.789 11.9207C3.514 11.6627 3.158 11.5217 2.776 11.5427C2.569 11.5447 2.375 11.4737 2.229 11.3327C2.083 11.1917 2 10.9957 2 10.7927V8.0027C2.001 5.7177 3.86 3.8597 6.144 3.8597H17.856C20.146 3.8607 22.002 5.7227 22 8.0067V10.7057C22 11.1197 21.664 11.4557 21.25 11.4557C20.429 11.4557 19.76 12.1237 19.76 12.9437C19.761 13.7657 20.429 14.4337 21.25 14.4337C21.664 14.4337 22 14.7697 22 15.1837V17.8837C21.999 20.1677 20.14 22.0257 17.857 22.0257Z" fill="#FCD50A"/>
</g>
<path fill-rule="evenodd" clip-rule="evenodd" d="M10.1038 12.2407L10.6128 12.7367C10.8888 13.0077 11.0138 13.3937 10.9478 13.7707L10.8278 14.4687L11.4568 14.1377C11.7958 13.9567 12.2028 13.9577 12.5448 14.1397L13.1698 14.4677L13.0498 13.7687C12.9868 13.3857 13.1128 13.0027 13.3858 12.7367L13.8948 12.2407L13.1898 12.1387C12.8118 12.0837 12.4838 11.8457 12.3148 11.5007L11.9998 10.8637L11.6848 11.5017C11.5158 11.8457 11.1878 12.0837 10.8078 12.1387L10.1038 12.2407ZM13.6178 16.2467C13.4318 16.2467 13.2458 16.2017 13.0738 16.1107L11.9998 15.5477L10.9248 16.1117C10.5288 16.3187 10.0578 16.2857 9.69783 16.0237C9.33683 15.7607 9.15983 15.3247 9.23483 14.8847L9.43983 13.6887L8.57083 12.8417C8.25183 12.5307 8.13783 12.0737 8.27483 11.6497C8.41283 11.2247 8.77283 10.9197 9.21383 10.8557L10.4178 10.6797L10.9548 9.5907C11.1518 9.1907 11.5518 8.9417 11.9998 8.9417C12.4458 8.9417 12.8468 9.1907 13.0438 9.5917L13.5818 10.6797L14.7838 10.8557C15.2258 10.9197 15.5868 11.2247 15.7238 11.6497C15.8608 12.0737 15.7478 12.5307 15.4278 12.8427L14.5578 13.6897L14.7638 14.8847C14.8388 15.3257 14.6608 15.7627 14.2988 16.0247C14.0948 16.1717 13.8568 16.2467 13.6178 16.2467Z" fill="#FCD50A"/>
</svg>
